<?xml version="1.0" encoding="UTF-8"?>
<!--
  crab-mini-idle.svg  ·  迷你模式 idle (任务栏托盘)
  · 80×80 显示，简化版：缩 24×24 视口 + 去掉腿/钳的精细动画
-->
<svg xmlns="http://www.w3.org/2000/svg"
     viewBox="3 5 24 22"
     shape-rendering="crispEdges">

  <style>
    .mini-breathe { animation: mini-breathe 3.6s ease-in-out infinite; transform-origin: 15px 18px; }
    @keyframes mini-breathe {
      0%, 100% { transform: scale(1);    }
      50%      { transform: scale(1.03); }
    }
    #shadow { transform-origin: 15px 24.5px; animation: mini-shadow 3.6s ease-in-out infinite; }
    @keyframes mini-shadow {
      0%, 100% { opacity: 1;   }
      50%      { opacity: 0.7; }
    }
    .eyes-blink { transform-box: fill-box; transform-origin: 15px 12px; animation: auto-blink 6.4s steps(1) infinite; }
    @keyframes auto-blink {
      0%, 25%   { transform: scaleY(1); }
      26%, 27%  { transform: scaleY(0.05); }
      28%, 100% { transform: scaleY(1); }
    }
  </style>

  <g id="shadow">
    <rect x="9" y="24" width="12" height="1" fill="#000000" opacity="0.28"/>
  </g>

  <g class="mini-breathe">

    <rect x="8"  y="20" width="2" height="3" fill="#B95E40"/>
    <rect x="11" y="20" width="2" height="3" fill="#B95E40"/>
    <rect x="17" y="20" width="2" height="3" fill="#B95E40"/>
    <rect x="20" y="20" width="2" height="3" fill="#B95E40"/>

    <rect x="4"  y="12" width="2" height="3" fill="#D97856"/>
    <rect x="24" y="12" width="2" height="3" fill="#D97856"/>

    <rect x="7" y="7"  width="16" height="1"  fill="#D97856"/>
    <rect x="6" y="8"  width="18" height="11" fill="#D97856"/>
    <rect x="7" y="19" width="16" height="1"  fill="#D97856"/>
    <rect x="8" y="8"  width="14" height="1"  fill="#F3A98B"/>
    <rect x="8" y="18" width="14" height="1"  fill="#B95E40"/>

    <g class="eyes-blink">
      <rect x="10" y="10" width="2" height="4" fill="#111111"/>
      <rect x="18" y="10" width="2" height="4" fill="#111111"/>
      <rect x="10" y="10" width="1" height="1" fill="#FFFFFF"/>
      <rect x="18" y="10" width="1" height="1" fill="#FFFFFF"/>
    </g>

  </g>

</svg>
